<!DOCTYPE svg PUBLIC "-//W3C//DTD SVG 1.1//EN" "http://www.w3.org/Graphics/SVG/1.1/DTD/svg11.dtd">
<!-- Uploaded to: SVG Repo, www.svgrepo.com, Transformed by: SVG Repo Mixer Tools -->
<svg height="230px" width="230px" version="1.1" id="Layer_1" xmlns="http://www.w3.org/2000/svg" xmlns:xlink="http://www.w3.org/1999/xlink" viewBox="-250.87 -250.87 1013.72 1013.72" xml:space="preserve" fill="#000000" stroke="#000000" stroke-width="1.023968" transform="rotate(0)">
<g id="SVGRepo_bgCarrier" stroke-width="0" transform="translate(0,0), scale(1)">
<path transform="translate(-250.87, -250.87), scale(63.3575)" fill="#7ed0ec" d="M9.166.33a2.25 2.25 0 00-2.332 0l-5.25 3.182A2.25 2.25 0 00.5 5.436v5.128a2.25 2.25 0 001.084 1.924l5.25 3.182a2.25 2.25 0 002.332 0l5.25-3.182a2.25 2.25 0 001.084-1.924V5.436a2.25 2.25 0 00-1.084-1.924L9.166.33z" strokewidth="0"/>
</g>
<g id="SVGRepo_tracerCarrier" stroke-linecap="round" stroke-linejoin="round" stroke="#CCCCCC" stroke-width="1.023968"/>
<g id="SVGRepo_iconCarrier"> <path style="fill:#434A54;" d="M395.834,127.996H118.507l0,0c-5.89,0-10.671-4.781-10.671-10.664 c0-5.882,4.781-10.664,10.671-10.664l0,0h117.324c17.672,0,31.999-14.328,31.999-31.999V10.664C267.83,4.773,263.05,0,257.159,0 c-5.891,0-10.656,4.773-10.656,10.664V74.67c0,5.875-4.797,10.663-10.672,10.663H118.507l0,0c-17.687,0-31.999,14.328-31.999,31.999 c0,17.672,14.312,31.999,31.999,31.999l0,0h277.327c5.875,0,10.655,4.781,10.655,10.664s-4.78,10.671-10.655,10.671h-117.34l0,0 c-17.663,0-31.991,14.32-31.991,31.999v47.327h21.327v-47.327c0-5.883,4.789-10.671,10.664-10.671l0,0h117.34 c17.655,0,31.999-14.328,31.999-31.999C427.833,142.324,413.489,127.996,395.834,127.996z"/> <path style="fill:#656D78;" d="M273.15,234.657H241.16c-5.891,0-10.655,4.773-10.655,10.672v74.662 c0,5.891,4.765,10.656,10.655,10.656h31.991c5.906,0,10.687-4.766,10.687-10.656v-74.662 C283.837,239.43,279.056,234.657,273.15,234.657z"/> <path style="fill:#E6E9ED;" d="M479.987,479.984c0,11.781-9.562,21.344-21.343,21.344H53.337c-11.78,0-21.343-9.562-21.343-21.344 v-170.65c0-11.781,9.562-21.344,21.343-21.344h405.308c11.78,0,21.343,9.562,21.343,21.344v170.65H479.987z"/> <path style="fill:#CCD1D9;" d="M458.645,511.984H53.337c-17.64,0-31.998-14.359-31.998-32v-170.65 c0-17.656,14.358-31.998,31.998-31.998h405.308c17.655,0,31.999,14.342,31.999,31.998v170.65 C490.643,497.625,476.3,511.984,458.645,511.984z M53.337,298.646c-5.89,0-10.671,4.797-10.671,10.688v170.65 c0,5.875,4.781,10.656,10.671,10.656h405.308c5.905,0,10.687-4.781,10.687-10.656v-170.65c0-5.891-4.781-10.688-10.687-10.688 H53.337z"/> <g> <path style="fill:#ED5564;" d="M363.835,351.988c0,11.781-9.562,21.344-21.344,21.344c-11.78,0-21.342-9.562-21.342-21.344 c0-11.779,9.562-21.342,21.342-21.342C354.272,330.646,363.835,340.209,363.835,351.988z"/> <path style="fill:#ED5564;" d="M438.489,351.988c0,11.781-9.562,21.344-21.344,21.344s-21.312-9.562-21.312-21.344 c0-11.779,9.53-21.342,21.312-21.342S438.489,340.209,438.489,351.988z"/> </g> <g> <path style="fill:#434A54;" d="M363.835,426.642c0,11.781-9.562,21.344-21.344,21.344c-11.78,0-21.342-9.562-21.342-21.344 s9.562-21.312,21.342-21.312C354.272,405.33,363.835,414.861,363.835,426.642z"/> <path style="fill:#434A54;" d="M438.489,426.642c0,11.781-9.562,21.344-21.344,21.344s-21.312-9.562-21.312-21.344 s9.53-21.312,21.312-21.312S438.489,414.861,438.489,426.642z"/> </g> <path style="fill:#CCD1D9;" d="M278.494,469.328h-42.663c-5.89,0-10.671-4.779-10.671-10.686c0-5.875,4.781-10.656,10.671-10.656 h42.663c5.905,0,10.655,4.781,10.655,10.656C289.149,464.549,284.399,469.328,278.494,469.328z"/> <path style="fill:#434A54;" d="M139.835,341.334c-11.781,0-21.328,9.529-21.328,21.311v63.998c0,11.781,9.547,21.344,21.328,21.344 c11.78,0,21.327-9.562,21.327-21.344v-63.998C161.163,350.863,151.615,341.334,139.835,341.334z"/> <path style="fill:#656D78;" d="M193.161,394.644c0-11.781-9.547-21.312-21.327-21.312h-63.998c-11.781,0-21.328,9.531-21.328,21.312 c0,11.779,9.547,21.342,21.328,21.342h63.998C183.615,415.986,193.161,406.439,193.161,394.644z"/> </g>
</svg>